<svg width="38" height="38" fill="none" xmlns="http://www.w3.org/2000/svg"><g filter="url(#filter0_d)"><circle cx="19" cy="15" r="15" fill="#fff"/></g><path d="M15.11 20h-2.544v-8.176h2.543V20zm-1.258-9.297a1.42 1.42 0 01-1.04-.437 1.42 1.42 0 01-.437-1.04c0-.4.146-.747.438-1.039a1.42 1.42 0 011.039-.437c.4 0 .747.146 1.039.438.291.291.437.638.437 1.039 0 .255-.073.5-.219.738a1.57 1.57 0 01-.546.547 1.386 1.386 0 01-.711.191zM24.625 20h-2.543v-3.992c0-.31-.01-.556-.027-.738a3.23 3.23 0 00-.137-.657.965.965 0 00-.41-.574c-.182-.127-.429-.191-.738-.191-.602 0-1.012.191-1.23.574-.201.383-.302.893-.302 1.531V20h-2.543v-8.176h2.461v1.121h.028c.182-.364.483-.674.902-.93.42-.273.92-.41 1.504-.41.62 0 1.13.1 1.531.301.42.182.73.465.93.848.219.364.364.766.437 1.203.091.438.137.957.137 1.559V20z" fill="#686666"/><defs><filter id="filter0_d" x="0" y="0" width="38" height="38" filterUnits="userSpaceOnUse" color-interpolation-filters="sRGB"><feFlood flood-opacity="0" result="BackgroundImageFix"/><feColorMatrix in="SourceAlpha" values="0 0 0 0 0 0 0 0 0 0 0 0 0 0 0 0 0 0 127 0"/><feOffset dy="4"/><feGaussianBlur stdDeviation="2"/><feColorMatrix values="0 0 0 0 0 0 0 0 0 0 0 0 0 0 0 0 0 0 0.05 0"/><feBlend in2="BackgroundImageFix" result="effect1_dropShadow"/><feBlend in="SourceGraphic" in2="effect1_dropShadow" result="shape"/></filter></defs></svg>