<svg width="200" height="45" fill="none" xmlns="http://www.w3.org/2000/svg"><path d="M22.134 21.263c0 3.545-.88 6.27-2.637 8.173-1.758 1.905-4.277 2.857-7.559 2.857-3.28 0-5.8-.952-7.558-2.857-1.758-1.904-2.637-4.638-2.637-8.203 0-3.564.88-6.284 2.637-8.159 1.767-1.884 4.297-2.827 7.588-2.827 3.29 0 5.805.947 7.544 2.842 1.748 1.894 2.622 4.619 2.622 8.174zm-15.63 0c0 2.392.454 4.194 1.362 5.405.908 1.21 2.266 1.816 4.072 1.816 3.623 0 5.435-2.407 5.435-7.221 0-4.825-1.802-7.237-5.405-7.237-1.807 0-3.17.61-4.087 1.831-.918 1.211-1.377 3.013-1.377 5.406zM41.338 32H36.87v-9.565c0-1.182-.21-2.066-.63-2.652-.42-.596-1.089-.893-2.007-.893-1.25 0-2.153.42-2.71 1.26-.556.83-.834 2.211-.834 4.145V32H26.22V15.623h3.413l.6 2.095h.25a4.682 4.682 0 012.05-1.787c.88-.41 1.875-.616 2.989-.616 1.904 0 3.35.518 4.335 1.553.987 1.026 1.48 2.51 1.48 4.453V32zM52.72 18.494c-.947 0-1.69.303-2.227.908-.537.596-.845 1.446-.923 2.55h6.27c-.02-1.104-.308-1.954-.864-2.55-.557-.605-1.309-.908-2.256-.908zm.63 13.799c-2.637 0-4.698-.728-6.182-2.183-1.484-1.455-2.227-3.515-2.227-6.181 0-2.744.684-4.864 2.051-6.358 1.377-1.504 3.277-2.256 5.698-2.256 2.315 0 4.117.66 5.406 1.978 1.289 1.318 1.933 3.14 1.933 5.464v2.168H49.468c.049 1.27.425 2.26 1.128 2.973.703.713 1.69 1.07 2.959 1.07.986 0 1.919-.103 2.797-.308a14.002 14.002 0 002.754-.981v3.457c-.78.39-1.616.678-2.504.864-.89.195-1.973.293-3.252.293zm18.794-12.32h8.496v11.104c-1.377.45-2.676.762-3.897.938a24.528 24.528 0 01-3.72.278c-3.233 0-5.704-.947-7.413-2.842-1.699-1.904-2.548-4.634-2.548-8.188 0-3.457.986-6.153 2.959-8.086 1.982-1.934 4.726-2.9 8.232-2.9 2.197 0 4.316.439 6.357 1.318l-1.508 3.632c-1.563-.78-3.189-1.171-4.878-1.171-1.963 0-3.535.659-4.717 1.977-1.182 1.319-1.773 3.091-1.773 5.318 0 2.324.474 4.101 1.421 5.332.957 1.22 2.344 1.83 4.16 1.83.948 0 1.91-.097 2.886-.292v-4.468h-4.057v-3.78zm22.397-4.658c.606 0 1.108.044 1.509.132l-.337 4.19c-.361-.098-.8-.147-1.319-.147-1.425 0-2.538.366-3.34 1.099-.79.732-1.186 1.758-1.186 3.076V32H85.4V15.623h3.384l.66 2.754h.22a6.118 6.118 0 012.05-2.212 5.078 5.078 0 012.827-.85zM109.424 32l-.864-2.227h-.118c-.752.948-1.528 1.607-2.329 1.978-.791.361-1.826.542-3.105.542-1.572 0-2.813-.45-3.72-1.348-.9-.898-1.349-2.177-1.349-3.838 0-1.738.606-3.017 1.817-3.837 1.221-.83 3.056-1.29 5.508-1.377l2.841-.088v-.718c0-1.66-.849-2.49-2.548-2.49-1.309 0-2.847.395-4.615 1.186l-1.48-3.017c1.886-.987 3.976-1.48 6.27-1.48 2.198 0 3.882.479 5.054 1.436 1.172.957 1.758 2.412 1.758 4.365V32h-3.12zm-1.319-7.588l-1.728.059c-1.299.039-2.266.273-2.9.703-.635.43-.953 1.084-.953 1.963 0 1.26.723 1.89 2.168 1.89 1.036 0 1.861-.299 2.476-.894.625-.596.937-1.387.937-2.373v-1.348zm14.239 7.881c-1.924 0-3.438-.747-4.541-2.241-1.094-1.494-1.641-3.565-1.641-6.211 0-2.686.557-4.776 1.67-6.27 1.123-1.504 2.666-2.256 4.629-2.256 2.06 0 3.633.801 4.717 2.403h.146c-.224-1.22-.337-2.31-.337-3.267V9.207h4.483V32h-3.428l-.864-2.124h-.191c-1.015 1.611-2.563 2.417-4.643 2.417zm1.567-3.56c1.143 0 1.978-.332 2.505-.996.537-.664.83-1.792.879-3.383v-.484c0-1.758-.274-3.018-.82-3.78-.537-.76-1.416-1.142-2.637-1.142-.996 0-1.773.425-2.329 1.275-.547.84-.821 2.065-.821 3.676 0 1.612.279 2.823.835 3.633.557.801 1.353 1.201 2.388 1.201zm19.014-10.239c-.947 0-1.69.303-2.227.908-.537.596-.844 1.446-.923 2.55h6.27c-.02-1.104-.308-1.954-.864-2.55-.557-.605-1.309-.908-2.256-.908zm.63 13.799c-2.637 0-4.698-.728-6.182-2.183-1.484-1.455-2.227-3.515-2.227-6.181 0-2.744.684-4.864 2.051-6.358 1.377-1.504 3.277-2.256 5.699-2.256 2.314 0 4.116.66 5.405 1.978 1.289 1.318 1.933 3.14 1.933 5.464v2.168h-10.561c.049 1.27.425 2.26 1.128 2.973.703.713 1.689 1.07 2.959 1.07.986 0 1.919-.103 2.798-.308a14.023 14.023 0 002.754-.981v3.457c-.782.39-1.617.678-2.505.864-.889.195-1.973.293-3.252.293z" fill="#000"/><path fill="#F3FB04" d="M0 40h150v5H0z"/></svg>