<svg width="38" height="38" fill="none" xmlns="http://www.w3.org/2000/svg"><g filter="url(#filter0_d)"><circle cx="19" cy="15" r="15" fill="#fff"/></g><path d="M25.155 11.188a5.06 5.06 0 01-1.453.39 2.516 2.516 0 001.11-1.39 4.97 4.97 0 01-1.602.609A2.517 2.517 0 0021.366 10a2.522 2.522 0 00-2.523 2.523c0 .196.023.391.062.579a7.173 7.173 0 01-5.203-2.641 2.521 2.521 0 00.781 3.375 2.54 2.54 0 01-1.14-.32v.03c0 1.227.867 2.243 2.023 2.477a2.667 2.667 0 01-1.14.047c.32 1 1.25 1.727 2.359 1.75a5.054 5.054 0 01-3.133 1.078c-.21 0-.406-.007-.61-.03A7.131 7.131 0 0016.719 20c4.64 0 7.18-3.844 7.18-7.18 0-.11 0-.218-.008-.328.492-.36.921-.805 1.265-1.305z" fill="#686666"/><defs><filter id="filter0_d" x="0" y="0" width="38" height="38" filterUnits="userSpaceOnUse" color-interpolation-filters="sRGB"><feFlood flood-opacity="0" result="BackgroundImageFix"/><feColorMatrix in="SourceAlpha" values="0 0 0 0 0 0 0 0 0 0 0 0 0 0 0 0 0 0 127 0"/><feOffset dy="4"/><feGaussianBlur stdDeviation="2"/><feColorMatrix values="0 0 0 0 0 0 0 0 0 0 0 0 0 0 0 0 0 0 0.05 0"/><feBlend in2="BackgroundImageFix" result="effect1_dropShadow"/><feBlend in="SourceGraphic" in2="effect1_dropShadow" result="shape"/></filter></defs></svg>